<svg width="586" height="586" viewBox="0 0 586 586" fill="none" xmlns="http://www.w3.org/2000/svg">
<rect width="586" height="586" rx="150" fill="#040404"/>
<rect width="586" height="586" rx="150" fill="#040404"/>
<g clip-path="url(#clip0_130_9)">
<path d="M110.692 446.821C130.788 446.821 150.687 442.853 169.253 435.143C187.819 427.434 204.688 416.134 218.898 401.888C233.108 387.643 244.38 370.731 252.07 352.118C259.76 333.505 263.718 313.557 263.718 293.411C263.718 273.264 259.76 253.316 252.07 234.703C244.38 216.09 233.108 199.178 218.898 184.933C204.688 170.687 187.819 159.387 169.253 151.678C150.687 143.968 130.788 140 110.692 140V201.364C122.75 201.364 134.689 203.745 145.829 208.371C156.968 212.996 167.09 219.777 175.616 228.324C184.142 236.871 190.905 247.018 195.519 258.186C200.133 269.354 202.508 281.323 202.508 293.411C202.508 305.498 200.133 317.467 195.519 328.635C190.905 339.803 184.142 349.95 175.616 358.497C167.09 367.044 156.968 373.825 145.829 378.45C134.689 383.076 122.75 385.457 110.692 385.457V446.821Z" fill="white"/>
<path d="M416.744 140C384.238 141.845 356.893 148.997 331.727 165.854C306.563 182.711 286.949 206.67 275.367 234.703C263.784 262.735 260.754 293.581 266.659 323.34C272.563 353.098 287.138 380.433 308.538 401.888C329.94 423.343 357.206 437.954 386.89 443.873C416.574 449.792 447.343 446.755 475.304 435.143C503.266 423.532 527.166 403.869 543.98 378.641C560.797 353.413 569.77 323.752 569.77 293.411H508.559C508.559 311.616 503.174 329.411 493.086 344.549C482.997 359.686 468.658 371.483 451.88 378.45C435.103 385.417 416.642 387.24 398.832 383.688C381.021 380.137 364.661 371.37 351.821 358.497C338.98 345.624 330.236 329.223 326.693 311.368C323.15 293.513 324.968 275.005 331.918 258.186C338.867 241.367 350.635 226.991 365.734 216.877C380.833 206.763 398.585 201.364 416.744 201.364V140Z" fill="white"/>
<path d="M110.693 201.487C98.6513 201.487 86.7281 203.865 75.6034 208.485C64.4788 213.104 54.3707 219.875 45.8562 228.411C37.3417 236.947 30.5877 247.08 25.9797 258.233C21.3717 269.386 19 281.339 19 293.41C19 305.482 21.3717 317.435 25.9797 328.588C30.5877 339.741 37.3417 349.874 45.8562 358.41C54.3707 366.946 64.4788 373.717 75.6034 378.336C86.7281 382.956 98.6513 385.334 110.693 385.334V201.487Z" fill="#CB152F"/>
<path d="M419.811 293.718V238.379H505.984L569.77 293.718H419.811Z" fill="#CB152F"/>
</g>
<g clip-path="url(#clip1_130_9)">
<path d="M109.692 445.821C129.788 445.821 149.687 441.853 168.253 434.143C186.819 426.434 203.688 415.134 217.898 400.888C232.108 386.643 243.38 369.731 251.07 351.118C258.76 332.505 262.718 312.557 262.718 292.411C262.718 272.264 258.76 252.316 251.07 233.703C243.38 215.09 232.108 198.178 217.898 183.933C203.688 169.687 186.819 158.387 168.253 150.678C149.687 142.968 129.788 139 109.692 139V200.364C121.75 200.364 133.689 202.745 144.829 207.371C155.968 211.996 166.09 218.777 174.616 227.324C183.142 235.871 189.905 246.018 194.519 257.186C199.133 268.354 201.508 280.323 201.508 292.411C201.508 304.498 199.133 316.467 194.519 327.635C189.905 338.803 183.142 348.95 174.616 357.497C166.09 366.044 155.968 372.825 144.829 377.45C133.689 382.076 121.75 384.457 109.692 384.457V445.821Z" fill="white"/>
<path d="M415.744 139C383.238 140.845 355.893 147.997 330.727 164.854C305.563 181.711 285.949 205.67 274.367 233.703C262.784 261.735 259.754 292.581 265.659 322.34C271.563 352.098 286.138 379.433 307.538 400.888C328.94 422.343 356.206 436.954 385.89 442.873C415.574 448.792 446.343 445.755 474.304 434.143C502.266 422.532 526.166 402.869 542.98 377.641C559.797 352.413 568.77 322.752 568.77 292.411H507.559C507.559 310.616 502.174 328.411 492.086 343.549C481.997 358.686 467.658 370.483 450.88 377.45C434.103 384.417 415.642 386.24 397.832 382.688C380.021 379.137 363.661 370.37 350.821 357.497C337.98 344.624 329.236 328.223 325.693 310.368C322.15 292.513 323.968 274.005 330.918 257.186C337.867 240.367 349.635 225.991 364.734 215.877C379.833 205.763 397.585 200.364 415.744 200.364V139Z" fill="white"/>
<path d="M109.693 200.487C97.6513 200.487 85.7281 202.865 74.6034 207.485C63.4788 212.104 53.3707 218.875 44.8562 227.411C36.3417 235.947 29.5877 246.08 24.9797 257.233C20.3717 268.386 18 280.339 18 292.41C18 304.482 20.3717 316.435 24.9797 327.588C29.5877 338.741 36.3417 348.874 44.8562 357.41C53.3707 365.946 63.4788 372.717 74.6034 377.336C85.7281 381.956 97.6513 384.334 109.693 384.334V200.487Z" fill="#CB152F"/>
<path d="M418.811 292.718V237.379H504.984L568.77 292.718H418.811Z" fill="#CB152F"/>
</g>
<defs>
<clipPath id="clip0_130_9">
<rect width="551" height="307" fill="white" transform="translate(19 140)"/>
</clipPath>
<clipPath id="clip1_130_9">
<rect width="551" height="307" fill="white" transform="translate(18 139)"/>
</clipPath>
</defs>
</svg>
