<svg width="1031" height="573" viewBox="0 0 1031 573" fill="none" xmlns="http://www.w3.org/2000/svg">
<g clip-path="url(#clip0_124_2)">
<path d="M171.57 572.666C209.172 572.666 246.406 565.26 281.145 550.87C315.885 536.481 347.45 515.39 374.038 488.801C400.627 462.213 421.718 430.648 436.108 395.908C450.497 361.168 457.903 323.935 457.903 286.333C457.903 248.731 450.497 211.498 436.108 176.758C421.718 142.019 400.627 110.453 374.038 83.865C347.45 57.2765 315.885 36.1854 281.145 21.7958C246.406 7.40622 209.172 -1.6436e-06 171.57 0V114.533C194.131 114.533 216.472 118.977 237.315 127.611C258.159 136.244 277.098 148.899 293.051 164.852C309.004 180.805 321.659 199.744 330.293 220.588C338.926 241.432 343.37 263.772 343.37 286.333C343.37 308.894 338.926 331.234 330.293 352.078C321.659 372.922 309.004 391.861 293.051 407.814C277.098 423.767 258.159 436.422 237.315 445.055C216.472 453.689 194.131 458.133 171.57 458.133V572.666Z" fill="white"/>
<path d="M744.236 0C683.412 3.44291 632.246 16.793 585.158 48.2557C538.071 79.7184 501.371 124.437 479.699 176.758C458.027 229.079 452.357 286.651 463.405 342.194C474.453 397.737 501.724 448.757 541.768 488.801C581.813 528.845 632.832 556.116 688.376 567.164C743.919 578.212 801.491 572.542 853.811 550.87C906.132 529.198 950.851 492.498 982.314 445.411C1013.78 398.324 1030.57 342.964 1030.57 286.333H916.036C916.036 320.312 905.96 353.527 887.083 381.78C868.205 410.032 841.374 432.052 809.981 445.055C778.589 458.058 744.046 461.461 710.72 454.832C677.394 448.203 646.782 431.84 622.756 407.814C598.729 383.787 582.367 353.175 575.738 319.849C569.109 286.524 572.511 251.98 585.514 220.588C598.517 189.196 620.537 162.364 648.79 143.487C677.042 124.609 710.258 114.533 744.236 114.533V0Z" fill="white"/>
<path d="M171.57 114.763C149.039 114.763 126.729 119.201 105.913 127.823C85.0973 136.445 66.1836 149.083 50.2518 165.015C34.32 180.946 21.6822 199.86 13.06 220.676C4.4378 241.492 -7.1618e-07 263.802 0 286.333C7.1618e-07 308.864 4.4378 331.174 13.06 351.99C21.6822 372.806 34.32 391.72 50.2518 407.652C66.1836 423.583 85.0974 436.221 105.913 444.843C126.729 453.466 149.039 457.903 171.57 457.903V114.763Z" fill="#CB152F"/>
<path d="M749.974 286.907V183.62H911.216L1030.57 286.907H749.974Z" fill="#CB152F"/>
</g>
<defs>
<clipPath id="clip0_124_2">
<rect width="1031" height="573" fill="white"/>
</clipPath>
</defs>
</svg>
