<svg width="760" height="422" viewBox="0 0 760 422" fill="none" xmlns="http://www.w3.org/2000/svg">
<path d="M126.431 422C154.14 422 181.577 416.542 207.177 405.939C232.777 395.335 256.037 379.793 275.63 360.2C295.223 340.606 310.765 317.346 321.369 291.746C331.973 266.147 337.431 238.709 337.431 211C337.431 183.291 331.973 155.853 321.369 130.254C310.765 104.654 295.223 81.3936 275.63 61.8005C256.037 42.2073 232.777 26.6652 207.177 16.0614C181.577 5.45767 154.14 -1.21119e-06 126.431 0L126.431 84.4C143.056 84.4 159.519 87.6746 174.878 94.0368C190.238 100.399 204.194 109.724 215.95 121.48C227.706 133.236 237.032 147.192 243.394 162.552C249.756 177.912 253.031 194.375 253.031 211C253.031 227.625 249.756 244.088 243.394 259.448C237.032 274.808 227.706 288.764 215.95 300.52C204.194 312.276 190.238 321.601 174.878 327.963C159.519 334.325 143.056 337.6 126.431 337.6L126.431 422Z" fill="url(#paint0_linear_93_4)"/>
<path d="M548.431 1.56139e-05C503.609 2.53711 465.904 12.3748 431.205 35.5598C396.507 58.7448 369.462 91.6985 353.492 130.254C337.522 168.809 333.344 211.234 341.485 252.164C349.627 293.094 369.722 330.691 399.231 360.199C428.74 389.708 466.337 409.804 507.267 417.946C548.197 426.087 590.622 421.909 629.177 405.939C667.732 389.968 700.686 362.924 723.871 328.225C747.056 293.526 759.431 252.732 759.431 211H675.031C675.031 236.039 667.606 260.516 653.695 281.335C639.784 302.154 620.012 318.381 596.878 327.963C573.745 337.545 548.29 340.052 523.732 335.167C499.174 330.282 476.616 318.225 458.911 300.52C441.206 282.814 429.148 260.256 424.263 235.698C419.378 211.14 421.886 185.685 431.468 162.552C441.05 139.419 457.276 119.647 478.096 105.736C498.915 91.8249 523.392 84.3999 548.431 84.3999L548.431 1.56139e-05Z" fill="url(#paint1_linear_93_4)"/>
<path d="M126.431 84.5692C109.828 84.5692 93.3872 87.8394 78.0479 94.1932C62.7086 100.547 48.7709 109.86 37.0307 121.6C25.2906 133.34 15.9777 147.278 9.62398 162.617C3.27023 177.956 -5.27756e-07 194.397 0 211C5.27756e-07 227.603 3.27023 244.044 9.62398 259.383C15.9777 274.722 25.2906 288.66 37.0308 300.4C48.7709 312.14 62.7086 321.453 78.0479 327.807C93.3872 334.161 109.828 337.431 126.431 337.431L126.431 84.5692Z" fill="url(#paint2_linear_93_4)"/>
<path d="M552.659 211.423V135.311L671.479 135.311L759.431 211.423L552.659 211.423Z" fill="url(#paint3_linear_93_4)"/>
<defs>
<linearGradient id="paint0_linear_93_4" x1="335.431" y1="211" x2="333.431" y2="-92" gradientUnits="userSpaceOnUse">
<stop stop-color="#ED0E68"/>
<stop offset="1" stop-color="#B90067"/>
</linearGradient>
<linearGradient id="paint1_linear_93_4" x1="335.431" y1="211" x2="333.431" y2="-92" gradientUnits="userSpaceOnUse">
<stop stop-color="#ED0E68"/>
<stop offset="1" stop-color="#B90067"/>
</linearGradient>
<linearGradient id="paint2_linear_93_4" x1="335.431" y1="211" x2="333.431" y2="-92" gradientUnits="userSpaceOnUse">
<stop stop-color="#ED0E68"/>
<stop offset="1" stop-color="#B90067"/>
</linearGradient>
<linearGradient id="paint3_linear_93_4" x1="335.431" y1="211" x2="333.431" y2="-92" gradientUnits="userSpaceOnUse">
<stop stop-color="#ED0E68"/>
<stop offset="1" stop-color="#B90067"/>
</linearGradient>
</defs>
</svg>
